<?xml version="1.0" standalone="no"?>
<!DOCTYPE svg PUBLIC "-//W3C//DTD SVG 20010904//EN"
 "http://www.w3.org/TR/2001/REC-SVG-20010904/DTD/svg10.dtd">
<svg version="1.0" xmlns="http://www.w3.org/2000/svg"
 width="2000.000000pt" height="2000.000000pt" viewBox="0 0 2000.000000 2000.000000"
 preserveAspectRatio="xMidYMid meet">
<metadata>
Created by potrace 1.14, written by Peter Selinger 2001-2017
</metadata>
<g transform="translate(0.000000,2000.000000) scale(0.100000,-0.100000)"
fill="#000000" stroke="none">
<path d="M9796 15265 c0 -1917 -2 -3482 -6 -3478 -4 4 -40 53 -80 108 -162
221 -434 517 -610 665 -36 30 -67 57 -70 60 -28 31 -292 230 -330 250 -14 7
-27 16 -30 20 -7 9 -209 134 -294 183 -95 54 -304 158 -396 197 -41 18 -88 38
-105 46 -109 49 -435 155 -615 200 -52 13 -98 24 -120 28 -14 3 -56 12 -95 20
-163 35 -364 65 -615 91 -203 21 -846 28 -1045 12 -55 -5 -107 -9 -115 -9 -8
0 -51 -4 -95 -9 -44 -5 -105 -11 -135 -15 -30 -3 -62 -7 -70 -9 -8 -2 -40 -7
-70 -10 -58 -7 -317 -54 -431 -79 -120 -26 -302 -76 -434 -118 -71 -23 -133
-43 -137 -44 -5 -1 -9 -2 -10 -4 -2 -1 -10 -3 -18 -5 -16 -3 -142 -50 -175
-64 -11 -5 -67 -28 -125 -51 -212 -85 -511 -240 -818 -425 -100 -60 -501 -348
-522 -374 -3 -4 -30 -26 -60 -49 -58 -46 -151 -128 -258 -227 -714 -666 -1281
-1561 -1590 -2515 -44 -134 -108 -357 -116 -403 -3 -16 -9 -43 -15 -60 -9 -28
-50 -219 -66 -302 -17 -92 -35 -195 -40 -230 -2 -22 -6 -49 -9 -60 -6 -33 -15
-97 -21 -150 -3 -27 -8 -63 -10 -80 -5 -38 -16 -154 -21 -209 -1 -22 -6 -84
-11 -136 -17 -197 -9 -1045 12 -1230 2 -19 6 -66 10 -105 3 -38 8 -81 10 -95
2 -14 6 -52 10 -85 4 -32 8 -66 10 -75 1 -8 6 -37 9 -65 4 -27 13 -86 21 -130
8 -44 16 -96 20 -115 13 -78 77 -370 96 -440 11 -41 22 -83 24 -93 2 -9 6 -21
9 -25 3 -5 7 -21 10 -35 14 -78 127 -413 206 -612 95 -237 245 -551 344 -718
25 -43 46 -81 46 -83 0 -8 146 -242 223 -359 646 -968 1577 -1724 2637 -2139
117 -46 202 -78 220 -81 3 -1 43 -14 90 -29 220 -72 603 -164 790 -190 19 -3
67 -10 105 -16 63 -10 90 -14 175 -24 14 -2 63 -6 110 -11 47 -4 99 -9 115
-11 170 -21 859 -21 1045 0 19 3 69 7 110 11 41 3 89 8 105 10 17 2 53 7 80
10 48 5 75 9 140 20 17 3 50 8 75 11 25 3 48 8 51 10 3 1 26 6 52 9 35 5 328
75 412 99 486 137 924 375 1445 786 259 204 581 513 750 720 25 30 53 63 63
75 11 11 49 59 85 108 36 48 67 85 70 83 4 -5 47 -212 58 -281 3 -22 7 -43 10
-46 2 -4 6 -24 10 -45 3 -22 12 -69 20 -106 7 -37 16 -82 19 -100 4 -18 29
-145 56 -283 28 -137 53 -261 55 -275 2 -14 7 -36 9 -50 3 -14 8 -36 10 -50 8
-45 66 -335 69 -345 2 -5 6 -31 10 -56 l8 -47 1364 0 1364 0 1 22 c1 26 1
17178 0 17189 -1 4 -691 7 -1533 7 l-1533 0 1 -3485z m-2951 -4279 c17 -3 55
-8 86 -11 31 -3 69 -7 85 -10 16 -2 47 -7 69 -10 392 -56 819 -209 1165 -419
80 -48 267 -178 320 -223 138 -115 190 -162 280 -253 126 -127 276 -302 345
-403 11 -18 37 -54 56 -82 242 -343 442 -842 525 -1305 27 -156 31 -179 39
-250 3 -30 8 -71 10 -90 25 -192 25 -764 0 -930 -2 -14 -7 -54 -10 -90 -4 -36
-9 -72 -10 -80 -1 -8 -6 -35 -10 -60 -3 -25 -9 -58 -11 -75 -9 -52 -55 -269
-64 -300 -5 -16 -26 -84 -46 -150 -116 -385 -283 -714 -527 -1040 -92 -122
-177 -217 -326 -365 -238 -236 -465 -402 -766 -560 -193 -102 -530 -223 -735
-264 -14 -3 -36 -7 -50 -10 -88 -20 -261 -48 -318 -52 -37 -3 -72 -7 -79 -9
-67 -22 -677 -22 -788 0 -11 2 -47 7 -80 10 -33 3 -71 7 -85 10 -13 3 -42 7
-65 10 -58 9 -181 34 -250 52 -33 8 -67 16 -75 18 -28 6 -235 74 -300 98 -273
102 -580 277 -815 465 -97 77 -144 119 -264 236 -218 213 -351 379 -547 686
-28 44 -166 317 -197 390 -23 53 -79 194 -82 205 -1 6 -5 17 -8 25 -26 64
-108 362 -122 445 -3 17 -12 66 -21 110 -8 44 -16 98 -19 120 -3 22 -7 51 -10
65 -7 40 -24 211 -31 315 -5 84 -5 475 1 565 5 77 11 143 21 240 8 79 43 299
54 340 5 19 12 49 14 65 3 17 8 40 11 53 3 12 7 30 9 40 23 102 114 374 171
511 100 240 283 549 447 749 33 41 67 83 76 95 40 50 307 317 363 362 34 28
67 55 73 60 47 42 299 225 310 225 2 0 43 24 92 53 281 167 637 301 977 366
104 20 124 23 217 36 25 3 55 8 67 10 12 3 68 8 125 11 56 3 105 8 107 10 6 5
560 -4 596 -10z"/>
<path d="M16945 18310 c-1 -3 -3 -920 -2 -2038 0 -1118 -2 -2035 -5 -2037 -2
-3 -40 36 -84 87 -43 50 -90 103 -104 118 -14 16 -45 51 -70 80 -25 29 -54 62
-65 74 -11 12 -49 55 -85 96 -68 78 -118 135 -135 154 -6 6 -39 45 -75 86 -36
41 -69 79 -75 86 -5 6 -32 37 -60 69 -27 32 -57 65 -66 74 -8 9 -78 88 -154
176 -76 88 -143 165 -149 170 -6 6 -38 42 -71 80 -33 39 -64 75 -70 81 -36 38
-132 149 -143 165 -19 27 -29 24 -77 -18 -22 -21 -70 -63 -104 -93 -35 -30
-69 -60 -76 -67 -7 -7 -50 -44 -96 -84 -46 -39 -86 -75 -89 -78 -3 -3 -39 -35
-80 -71 -41 -36 -80 -69 -86 -75 -6 -5 -40 -35 -74 -65 -35 -30 -68 -59 -74
-65 -6 -5 -81 -71 -166 -145 -141 -123 -177 -155 -245 -215 -12 -11 -35 -31
-51 -45 -35 -30 -168 -147 -200 -175 -12 -11 -74 -65 -137 -120 -64 -55 -116
-102 -116 -105 -1 -3 14 -21 32 -40 27 -30 97 -108 241 -270 17 -19 65 -73
106 -120 41 -47 82 -92 90 -100 9 -8 45 -49 80 -90 36 -41 67 -77 70 -80 9 -8
405 -453 426 -478 10 -13 33 -38 49 -56 17 -17 64 -69 105 -116 41 -47 77 -87
80 -90 3 -3 59 -66 125 -140 66 -74 125 -140 130 -146 6 -6 33 -37 60 -69 28
-32 55 -63 60 -69 15 -16 114 -126 153 -169 173 -195 543 -612 576 -648 22
-25 68 -76 101 -113 33 -38 71 -81 85 -96 14 -15 54 -60 90 -101 79 -89 160
-180 174 -195 6 -6 25 -27 41 -45 17 -19 66 -75 109 -124 44 -50 84 -94 88
-100 6 -7 533 -10 1538 -10 l1530 0 -2 3685 -3 3685 -1523 0 c-838 0 -1525 -2
-1527 -5z"/>
<path d="M16959 8993 c-1 -10 -1 -7713 0 -7734 1 -14 141 -16 1521 -16 l1520
0 0 3879 0 3878 -1520 0 c-836 0 -1520 -3 -1521 -7z"/>
</g>
</svg>
