<?xml version="1.0" encoding="UTF-8"?>
<svg id="Ebene_1" data-name="Ebene 1" xmlns="http://www.w3.org/2000/svg" viewBox="0 0 850 282">
  <defs>
    <style>
      .cls-1 {
        fill: #06f;
      }
    </style>
  </defs>
  <g>
    <path class="cls-1" d="m73.21,217.32c-13.96,0-26.43-3.4-37.4-10.18-10.97-6.77-19.65-16.05-26.03-27.82C3.39,167.55.21,154.19.21,139.24s3.19-28.28,9.58-39.94c6.38-11.68,15.06-20.84,26.03-27.53,10.97-6.68,23.44-10.03,37.4-10.03,11.16,0,20.94,2.09,29.32,6.28,8.38,4.2,15.16,10.08,20.34,17.65V-1.69h38.3v215.42h-34.11l-4.19-21.24c-4.78,6.59-11.12,12.37-18.99,17.36-7.89,4.98-18.1,7.47-30.67,7.47Zm8.07-33.52c12.37,0,22.49-4.13,30.37-12.42,7.88-8.27,11.82-18.89,11.82-31.86s-3.94-23.58-11.82-31.86c-7.89-8.28-18.01-12.42-30.37-12.42s-22.24,4.09-30.22,12.27c-7.97,8.18-11.97,18.75-11.97,31.71s3.99,23.63,11.97,32.01c7.97,8.38,18.05,12.56,30.22,12.56Z"/>
    <path class="cls-1" d="m186.59,213.73V65.33h34.11l3.59,27.83c5.38-9.58,12.71-17.2,21.99-22.89,9.28-5.69,20.2-8.53,32.76-8.53v40.39h-10.76c-8.38,0-15.86,1.3-22.45,3.9-6.57,2.59-11.71,7.07-15.4,13.46-3.7,6.38-5.54,15.25-5.54,26.62v67.62h-38.3Z"/>
    <path class="cls-1" d="m360.15,217.32c-14.37,0-27.28-3.29-38.75-9.87-11.47-6.59-20.55-15.7-27.22-27.38-6.7-11.66-10.03-25.18-10.03-40.54s3.4-28.86,10.18-40.54c6.78-11.66,15.9-20.79,27.38-27.38,11.46-6.57,24.37-9.87,38.74-9.87s26.98,3.3,38.45,9.87c11.47,6.59,20.54,15.72,27.23,27.38,6.67,11.68,10.02,25.19,10.02,40.54s-3.35,28.88-10.02,40.54c-6.7,11.68-15.81,20.79-27.38,27.38-11.58,6.59-24.43,9.87-38.59,9.87Zm0-33.21c9.97,0,18.64-3.74,26.03-11.22,7.38-7.47,11.07-18.59,11.07-33.36s-3.69-25.88-11.07-33.36c-7.39-7.47-15.96-11.22-25.74-11.22s-18.89,3.75-26.17,11.22c-7.29,7.47-10.92,18.6-10.92,33.36s3.63,25.88,10.92,33.36c7.28,7.49,15.9,11.22,25.88,11.22Z"/>
    <path class="cls-1" d="m456.76,279.56V65.33h34.11l4.19,21.24c4.78-6.57,11.12-12.36,19-17.35,7.88-4.99,18.1-7.49,30.67-7.49,13.95,0,26.43,3.4,37.4,10.18,10.97,6.78,19.64,16.06,26.03,27.83,6.38,11.76,9.57,25.13,9.57,40.09s-3.19,28.27-9.57,39.94c-6.39,11.66-15.06,20.84-26.03,27.53-10.97,6.67-23.45,10.02-37.4,10.02-11.18,0-20.95-2.09-29.33-6.28-8.38-4.19-15.16-10.07-20.34-17.65v86.17h-38.3Zm79.89-95.75c12.16,0,22.24-4.08,30.22-12.26,7.99-8.18,11.97-18.75,11.97-31.71s-3.98-23.64-11.97-32.02c-7.97-8.38-18.05-12.56-30.22-12.56s-22.49,4.14-30.36,12.42c-7.89,8.28-11.82,18.89-11.82,31.86s3.93,23.59,11.82,31.86c7.88,8.29,17.99,12.42,30.36,12.42Z"/>
    <path class="cls-1" d="m639.87,213.73v-97.02h38.3v97.02h-38.3Z"/>
    <path class="cls-1" d="m704.8,213.73V65.33h33.82l2.98,25.14c4.59-8.78,11.22-15.75,19.9-20.95,8.67-5.17,18.89-7.78,30.67-7.78,18.35,0,32.6,5.79,42.78,17.36,10.18,11.57,15.25,28.52,15.25,50.86v83.77h-38.29v-80.18c0-12.77-2.59-22.55-7.78-29.33-5.2-6.78-13.27-10.17-24.24-10.17s-19.6,3.79-26.48,11.36c-6.88,7.58-10.32,18.16-10.32,31.73v76.59h-38.3Z"/>
  </g>
  <rect class="cls-1" x="639.69" y=".15" width="38.3" height="92.21"/>
  <polygon class="cls-1" points="601.1 49.01 621.7 30.94 659.64 74.2 639.69 92.36 601.1 49.01"/>
</svg>